<svg width="1554.6" height="255.3" viewBox="0 0 1554.6 255.3" xmlns="http://www.w3.org/2000/svg"><g id="svgGroup" stroke-linecap="round" fill-rule="evenodd" font-size="9pt" stroke="#000" stroke-width="0.25mm" fill="#000000" style="stroke:#000;stroke-width:0.25mm;fill:#000000"><path d="M 342 43.2 L 304.2 91.5 L 267.6 91.5 L 181.5 255.3 L 115.5 255.3 L 161.1 168.6 Q 156.6 168 153.6 166.65 Q 150.6 165.3 147.3 164.1 Q 143.625 162.952 140.653 162.155 A 106.829 106.829 0 0 0 138.9 161.7 Q 135.3 160.8 131.85 160.05 Q 128.4 159.3 124.5 158.4 A 875.807 875.807 0 0 0 121.364 157.683 Q 119.97 157.366 118.429 157.021 A 1646.547 1646.547 0 0 0 115.2 156.3 A 4.71 4.71 0 0 1 114.223 156.725 Q 112.624 157.24 109.65 157.35 Q 105.698 157.496 103.031 157.5 A 99.004 99.004 0 0 1 102.9 157.5 A 55.908 55.908 0 0 1 98.732 157.335 Q 96.239 157.148 93.45 156.75 Q 88.2 156 84 154.65 A 53.957 53.957 0 0 1 81.061 153.616 Q 79.649 153.071 78.463 152.502 A 25.54 25.54 0 0 1 77.1 151.8 A 7.363 7.363 0 0 1 76.286 151.282 Q 74.716 150.115 75.181 148.779 A 2.364 2.364 0 0 1 75.3 148.5 Q 77.447 147.963 80.674 147.066 A 412.64 412.64 0 0 0 81.45 146.85 Q 85.2 145.8 88.8 144.6 A 513.758 513.758 0 0 0 91.352 143.742 Q 92.354 143.402 93.254 143.092 A 263.671 263.671 0 0 0 94.95 142.5 A 24.65 24.65 0 0 0 95.827 142.173 Q 97.556 141.488 97.8 141 A 0.17 0.17 0 0 0 97.843 140.937 Q 98.016 140.426 92.108 140.401 A 147.263 147.263 0 0 0 91.5 140.4 A 177.517 177.517 0 0 1 88.412 140.371 Q 86.297 140.334 83.85 140.25 Q 79.5 140.1 74.4 139.8 A 23.326 23.326 0 0 1 71.049 139.542 Q 68.766 139.209 66.15 138.45 A 36.021 36.021 0 0 1 57.422 134.567 A 40 40 0 0 1 57.15 134.4 Q 52.8 131.7 49.2 127.8 A 22.191 22.191 0 0 1 44.196 118.836 A 25.718 25.718 0 0 1 44.1 118.5 Q 49.077 119.085 56.482 119.671 A 583.591 583.591 0 0 0 56.85 119.7 A 201.894 201.894 0 0 0 65.124 120.185 A 160.95 160.95 0 0 0 71.1 120.3 L 79.2 119.4 Q 75.295 118.022 68.753 115.149 A 399.605 399.605 0 0 1 64.5 113.25 A 186.372 186.372 0 0 1 48.801 105.191 A 209.165 209.165 0 0 1 45.15 103.05 A 140.048 140.048 0 0 1 32.665 94.652 A 119.448 119.448 0 0 1 27.6 90.6 A 43.575 43.575 0 0 1 23.524 86.708 Q 21.602 84.598 20.342 82.519 A 16.852 16.852 0 0 1 18.3 77.7 L 19.8 78 Q 24.9 78.6 30.75 79.35 A 73.638 73.638 0 0 0 34.831 79.746 Q 39.788 80.1 46.8 80.1 L 56.4 80.1 A 18.971 18.971 0 0 0 57.41 80.075 Q 59.222 79.978 59.7 79.5 A 140.495 140.495 0 0 1 46.691 72.149 A 107.672 107.672 0 0 1 36.9 65.1 Q 27.3 57.3 20.1 47.7 A 94.22 94.22 0 0 1 8.865 28.088 A 105.384 105.384 0 0 1 8.1 26.25 A 158.941 158.941 0 0 1 2.746 10.651 A 197.598 197.598 0 0 1 0 0 A 684.636 684.636 0 0 0 29.81 11.266 A 800.585 800.585 0 0 0 44.25 16.2 Q 67.8 24 94.35 30 Q 120.9 36 150.3 39.6 A 491.504 491.504 0 0 0 195.261 42.946 A 570.677 570.677 0 0 0 212.4 43.2 L 342 43.2 Z M 1198.5 207 L 1207.8 189 A 73.684 73.684 0 0 1 1210.396 184.535 Q 1213.219 180.075 1215.9 177.6 A 17.561 17.561 0 0 1 1224.103 173.367 A 21.651 21.651 0 0 1 1225.5 173.1 L 1279.8 173.1 Q 1296.796 173.1 1308.497 165.944 A 42.346 42.346 0 0 0 1309.05 165.6 Q 1319.696 158.862 1327.8 145.101 A 93.252 93.252 0 0 0 1329.6 141.9 L 1365 74.4 A 74.603 74.603 0 0 0 1367.672 68.935 Q 1372.93 56.872 1369.35 50.7 A 11.806 11.806 0 0 0 1364.396 46.203 Q 1358.611 43.2 1347.6 43.2 L 1250.7 43.2 A 66.746 66.746 0 0 0 1237.999 44.344 Q 1230.227 45.851 1224.002 49.34 A 40.445 40.445 0 0 0 1221.75 50.7 A 49.926 49.926 0 0 0 1211.548 59.643 Q 1206.122 65.794 1201.5 74.4 L 1184.4 107.1 L 1250.4 107.1 A 59.277 59.277 0 0 1 1253.112 102.355 Q 1256.068 97.734 1259.079 95.405 A 14.302 14.302 0 0 1 1260.15 94.65 A 19.261 19.261 0 0 1 1266.277 92.158 Q 1268.81 91.582 1271.751 91.51 A 34.692 34.692 0 0 1 1272.6 91.5 L 1276.5 91.5 A 26.324 26.324 0 0 1 1279.293 91.636 Q 1282.182 91.946 1283.757 92.961 A 3.971 3.971 0 0 1 1285.35 94.8 Q 1286.7 98.1 1281.6 107.4 L 1280.7 109.5 A 60.456 60.456 0 0 1 1278.075 114.115 Q 1274.588 119.62 1271.1 121.8 Q 1266.817 124.477 1260.384 124.765 A 35.388 35.388 0 0 1 1258.8 124.8 L 1209 124.8 Q 1192.004 124.8 1180.303 131.956 A 42.346 42.346 0 0 0 1179.75 132.3 Q 1169.104 139.038 1161 152.799 A 93.252 93.252 0 0 0 1159.2 156 L 1107 255.3 L 1260 255.3 L 1297.5 207 L 1198.5 207 Z M 484.5 43.2 L 576.6 43.2 L 523.5 255.3 L 458.7 255.3 L 496.5 111.6 L 424.8 207 L 460.8 207 L 422.7 255.3 L 324 255.3 L 484.5 43.2 Z M 877.8 43.2 L 969.9 43.2 L 916.8 255.3 L 852 255.3 L 889.8 111.6 L 818.1 207 L 854.1 207 L 816 255.3 L 717.3 255.3 L 877.8 43.2 Z M 609.6 91.5 L 646.8 43.2 L 781.8 43.2 A 62.242 62.242 0 0 1 788.774 43.559 Q 800.086 44.841 803.25 50.7 A 10.698 10.698 0 0 1 804.409 54.379 Q 805.405 61.728 798.6 74.4 L 757.5 153 Q 749.879 167.153 739.666 174.886 A 48.115 48.115 0 0 1 737.55 176.4 A 43.964 43.964 0 0 1 722.24 182.812 Q 716.334 184.113 709.514 184.195 A 76.607 76.607 0 0 1 708.6 184.2 L 706.8 255.3 L 640.5 255.3 L 640.2 183.6 L 602.4 255.3 L 536.4 255.3 L 622.5 91.5 L 609.6 91.5 Z M 1528.2 148.8 L 1499.4 148.8 L 1554.6 43.2 L 1446.9 43.2 L 1338 161.1 L 1318.8 197.1 L 1408.8 197.1 L 1378.5 255.3 L 1443.6 255.3 L 1473.9 197.1 L 1490.1 197.1 L 1528.2 148.8 Z M 310.5 255.3 L 421.5 43.2 L 355.5 43.2 L 244.5 255.3 L 310.5 255.3 Z M 1199.7 43.2 L 1151.4 43.2 L 1126.5 91.5 L 1143.3 91.5 L 1126.5 123.3 L 1174.8 91.5 L 1199.7 43.2 Z M 710.1 91.5 L 688.5 91.5 L 665.1 135.9 L 686.7 135.9 A 28.002 28.002 0 0 0 691.945 135.436 Q 695.097 134.835 697.612 133.455 A 16.247 16.247 0 0 0 699 132.6 A 18.475 18.475 0 0 0 702.131 129.809 Q 705.366 126.267 708.6 120 L 715.2 107.4 Q 720.3 98.1 718.95 94.8 Q 717.829 92.059 712.463 91.595 A 27.516 27.516 0 0 0 710.1 91.5 Z M 1434.3 148.8 L 1415.1 148.8 L 1459.2 101.1 L 1434.3 148.8 Z" vector-effect="non-scaling-stroke"/></g></svg>