<?xml version="1.0" encoding="UTF-8" standalone="no"?>
<svg
   width="659"
   height="72"
   viewBox="0 0 659 72"
   fill="none"
   version="1.1"
   id="svg1"
   sodipodi:docname="tiaramask.svg"
   inkscape:version="1.3.2 (091e20e, 2023-11-25, custom)"
   xmlns:inkscape="http://www.inkscape.org/namespaces/inkscape"
   xmlns:sodipodi="http://sodipodi.sourceforge.net/DTD/sodipodi-0.dtd"
   xmlns:xlink="http://www.w3.org/1999/xlink"
   xmlns="http://www.w3.org/2000/svg"
   xmlns:svg="http://www.w3.org/2000/svg">
  <defs
     id="defs1">
    <clipPath
       clipPathUnits="userSpaceOnUse"
       id="clipPath6">
      <use
         x="0"
         y="0"
         xlink:href="#g5"
         id="use6" />
    </clipPath>
  </defs>
  <sodipodi:namedview
     id="namedview1"
     pagecolor="#ffffff"
     bordercolor="#000000"
     borderopacity="0.25"
     inkscape:showpageshadow="2"
     inkscape:pageopacity="0.0"
     inkscape:pagecheckerboard="0"
     inkscape:deskcolor="#d1d1d1"
     inkscape:zoom="1.0273141"
     inkscape:cx="464.31758"
     inkscape:cy="49.157312"
     inkscape:window-width="1920"
     inkscape:window-height="991"
     inkscape:window-x="-9"
     inkscape:window-y="-9"
     inkscape:window-maximized="1"
     inkscape:current-layer="g5" />
  <text
     xml:space="preserve"
     style="fill:#000000"
     x="103.66839"
     y="39.423191"
     id="text1"><tspan
       sodipodi:role="line"
       id="tspan1" /></text>
  <text
     xml:space="preserve"
     style="fill:#000000;fill-opacity:0"
     x="150.39217"
     y="-68.625557"
     id="text2"><tspan
       sodipodi:role="line"
       id="tspan2"
       x="150.39217"
       y="-68.625557">TIARA</tspan></text>
  <text
     xml:space="preserve"
     style="fill:#000000;fill-opacity:0"
     x="222.91138"
     y="35.529541"
     id="text3"><tspan
       sodipodi:role="line"
       id="tspan3"
       x="222.91138"
       y="35.529541"
       style="fill:#d40000">Tiara</tspan></text>
  <text
     xml:space="preserve"
     style="fill:#505050;fill-opacity:0"
     x="329.5"
     y="22.388479"
     id="text4"><tspan
       sodipodi:role="line"
       id="tspan4"
       x="329.5"
       y="22.388479">t</tspan></text>
  <g
     id="g6"
     clip-path="url(#clipPath6)">
    <g
       inkscape:label="Clip"
       id="g5">
      <path
         style="font-size:70.9216px;font-family:'American Kestrel Expanded';-inkscape-font-specification:'American Kestrel Expanded, ';fill:#190000;stroke-width:5.91013;fill-opacity:1"
         d="M 263.73446,23.779377 271.67768,12.361 h -36.73739 q -9.29073,0 -17.87225,-0.85106 -8.58151,-0.851059 -16.45381,-2.2694908 -7.80137,-1.418432 -14.96446,-3.2623936 -7.16308,-1.8439616 -13.54602,-3.8297664 1.91488,3.4042368 3.97161,6.2411008 2.05672,2.765942 4.53898,5.035434 2.55318,2.269491 5.74465,4.113452 3.19147,1.843962 7.37585,3.404237 -0.14185,0.141844 -0.92198,0.141844 h -2.76595 q -2.9787,0 -4.68082,-0.141844 -1.6312,-0.212764 -3.04963,-0.354608 l -0.42553,-0.07092 q 0.70922,1.489353 3.26239,3.049629 2.6241,1.560275 5.74465,2.978707 3.12055,1.34751 6.09926,2.411334 2.97871,0.992903 4.53898,1.418432 l -2.19857,0.212765 q -1.84396,0 -4.11345,-0.141843 -2.19857,-0.141843 -3.68792,-0.283687 0.78013,1.276589 1.9858,2.19857 1.27659,0.921981 2.6241,1.560275 1.41843,0.638295 2.76594,0.992903 1.41844,0.283686 2.48226,0.283686 1.41843,0.07092 2.6241,0.141843 1.20567,0 2.19857,0 1.9858,0 1.84396,0.141843 -0.0709,0.141844 -0.78014,0.354608 -0.63829,0.212765 -1.63119,0.496452 -0.92199,0.283686 -1.91489,0.567372 -0.9929,0.212765 -1.63119,0.354608 -0.14185,0.42553 0.70921,0.780138 0.85106,0.354608 2.12765,0.709216 1.34751,0.283686 2.83686,0.496451 1.48936,0.141843 2.69502,0.141843 0.78014,0 1.84397,0 1.13474,-0.07092 1.63119,-0.283686 1.56028,0.283686 2.69502,0.496451 1.13475,0.212765 2.12765,0.42553 1.06383,0.141843 2.12765,0.354608 1.06382,0.212765 2.55318,0.567373 0.9929,0.283686 1.91488,0.638294 0.92198,0.283686 2.19857,0.42553 l -7.8723,20.496342 h 18.7233 L 253.30898,23.779377 Z M 293.80517,12.361 274.58541,62.502571 h -18.7233 L 275.08186,12.361 Z m 43.54585,0 h -26.09915 l -33.26223,50.141571 h 28.01404 l 7.94321,-11.418378 h -10.21271 l 14.89354,-22.553068 -2.41133,33.971446 h 18.36869 z m 34.11328,11.418377 h 6.09926 q 2.12765,0 2.69502,0.780138 0.56738,0.780138 -0.28368,2.978707 l -1.13475,2.978707 q -0.85106,2.19857 -2.05673,2.978708 -1.13474,0.780137 -3.26239,0.780137 h -6.09926 z M 356.85445,12.361 349.05308,23.779377 h 3.68792 l -14.89353,38.723194 h 18.7233 l 6.52479,-16.950262 4.25529,16.950262 h 18.79423 L 382.599,45.694152 q 4.89359,0 7.73045,-1.843962 2.83686,-1.843961 4.2553,-5.531885 l 7.09216,-18.581459 q 1.48935,-3.829766 -0.0709,-5.602806 -1.48935,-1.77304 -6.45386,-1.77304 z m 91.20511,0 h -26.09915 l -33.26223,50.141571 h 28.01403 l 7.94322,-11.418378 h -10.21271 l 14.89353,-22.553068 -2.41133,33.971446 h 18.36869 z m 49.21951,0 h 13.68787 l -4.32622,11.418377 -11.84391,7.51769 2.90779,-7.51769 h -4.75175 z m 23.97155,34.467897 -1.6312,4.255296 h 28.08496 L 539.903,62.502571 h -43.40402 l 9.00704,-23.47505 q 1.48936,-3.829766 4.46806,-5.602806 2.97871,-1.77304 7.94322,-1.77304 h 14.1134 q 2.05673,0 3.2624,-0.709216 1.20566,-0.709216 2.05672,-2.907786 l 0.14185,-0.496451 q 0.85106,-2.198569 0.21276,-2.978707 -0.56737,-0.780138 -2.6241,-0.780138 h -1.13474 q -2.05673,0 -3.33332,0.780138 -1.20567,0.709216 -1.9858,2.907786 h -18.72331 l 2.90779,-7.730455 q 1.48935,-3.829766 4.39714,-5.602806 2.90778,-1.77304 7.80137,-1.77304 h 27.51759 q 4.89359,0 6.52478,1.77304 1.6312,1.77304 0.14185,5.602806 l -6.09926,15.95736 q -1.48936,3.829767 -4.46806,5.602807 -2.97871,1.77304 -7.8723,1.77304 h -15.46091 q -1.48935,0.212764 -2.41133,1.063824 -0.92198,0.851059 -1.6312,2.69502 z m 79.92857,-9.503494 h 8.2269 l -8.01414,11.418378 h -4.6099 l -5.2482,13.75879 h -18.43962 l 5.2482,-13.75879 H 552.81066 L 556.14397,40.233189 580.25732,12.361 h 30.49628 z m -23.90058,0 h 5.46096 l 4.32622,-11.276534 z"
         id="text5"
         transform="scale(0.87958586,1.1368987)"
         aria-label="Tiara '24" />
    </g>
  </g>
</svg>
